# xmcd
#
# Track frame offsets:
#	150
#	18142
#	39007
#	58805
#	74827
#	101135
#	116750
#	140040
#	157870
#	180320
#	204405
#	223867
#	241660
#	262362
#	283102
#	301237
#
# Disc length: 4415 seconds
#
# Revision: 0
# Processed by: cddbd v1.5PL3 Copyright (c) Steve Scherf et al.
# Submitted via: audiograbber 1.83.01
#
DISCID=ec113d10
DTITLE=Sky High - On The Cover-25 Years Of Madness Disc 2
DYEAR=2000
DGENRE=Blues
TTITLE0=I Ain´t Beggin
TTITLE1=Don´t Move
TTITLE2=Flowerchild
TTITLE3=Back To The Woods
TTITLE4=Fallen Angel
TTITLE5=We Need You
TTITLE6=Wild Women
TTITLE7=Little Bit Of Love
TTITLE8=Rodeo
TTITLE9=I Want You
TTITLE10=I´ll Play The Blues For You
TTITLE11=On The Outside Blues
TTITLE12=Heaven Sent
TTITLE13=Tune Me To Your Station
TTITLE14=Fat Guitar
TTITLE15=Ships In The Night
EXTD=
EXTT0=
EXTT1=
EXTT2=
EXTT3=
EXTT4=
EXTT5=
EXTT6=
EXTT7=
EXTT8=
EXTT9=
EXTT10=
EXTT11=
EXTT12=
EXTT13=
EXTT14=
EXTT15=
PLAYORDER=
